<svg width="1024" height="1024" viewBox="0 0 1024 1024" fill="none" xmlns="http://www.w3.org/2000/svg">
<path d="M481.37 212.009L542.981 212.018C543.108 212.018 543.231 212.061 543.329 212.142C543.428 212.222 543.495 212.334 543.52 212.459L585.214 432.69C585.291 433.098 585.489 433.475 585.783 433.77C586.076 434.065 586.451 434.265 586.86 434.344C600.131 436.916 612.189 439.595 624.597 442.095C699.185 457.129 761.443 469.69 811.371 479.779C811.736 479.851 811.946 480.045 812 480.363L811.847 543.43L586.572 590.249C586.217 590.324 585.893 590.502 585.639 590.761C585.384 591.02 585.212 591.349 585.142 591.706L544.257 804.672L542.828 812.189C542.803 812.313 542.735 812.425 542.637 812.506C542.538 812.586 542.415 812.63 542.288 812.629L481.253 812.647L438.885 591.688C438.818 591.332 438.647 591.005 438.392 590.747C438.137 590.489 437.811 590.313 437.455 590.24L240.404 549.221L212.468 543.484C212.335 543.455 212.216 543.382 212.131 543.278C212.045 543.173 211.999 543.043 212 542.909L212.036 480.372C212.042 480.066 212.18 479.887 212.45 479.833C248.422 472.513 313.944 459.302 409.015 440.198C419.163 438.16 429.048 435.945 438.669 433.553C451.281 367.033 463.819 300.933 476.281 235.252C477.702 227.753 479.074 220.245 480.399 212.728C480.495 212.189 480.819 211.949 481.37 212.009Z" fill="#4800FF"/>
<path d="M420.056 380.547C420.83 381.722 420.77 383.728 419.876 386.563L415.336 410.723C415.288 410.986 415.163 411.228 414.977 411.419C414.791 411.61 414.553 411.74 414.293 411.793L384.288 418.114C383.933 418.186 383.566 418.153 383.232 418.018C382.897 417.884 382.611 417.655 382.408 417.359L303.094 301.493C303.06 301.438 303.046 301.373 303.053 301.309C303.061 301.245 303.09 301.185 303.136 301.14C303.181 301.094 303.241 301.065 303.305 301.057C303.369 301.05 303.434 301.064 303.489 301.098L420.056 380.547Z" fill="#4800FF"/>
<path d="M720.205 302.769L641.843 417.583C641.691 417.804 641.478 417.976 641.228 418.076C640.979 418.177 640.705 418.202 640.44 418.149L609.545 411.711C609.346 411.668 609.164 411.567 609.021 411.42C608.879 411.272 608.783 411.086 608.745 410.884L603.296 382.138C603.243 381.857 603.272 381.567 603.381 381.303C603.489 381.04 603.672 380.814 603.908 380.654L720.106 301.384L720.358 301.267C720.422 301.237 720.493 301.226 720.563 301.236C720.633 301.246 720.698 301.277 720.751 301.324C720.804 301.371 720.841 301.432 720.859 301.501C720.877 301.569 720.875 301.641 720.852 301.708C720.696 302.128 720.481 302.481 720.205 302.769Z" fill="#4800FF"/>
<path d="M603.008 642.948L608.61 613.168C608.62 613.109 608.647 613.054 608.689 613.01C608.731 612.967 608.785 612.937 608.844 612.925L641.286 606.101C641.342 606.088 641.402 606.092 641.456 606.113C641.51 606.134 641.557 606.17 641.591 606.217L720.915 723.531C720.95 723.588 720.965 723.656 720.957 723.722C720.948 723.789 720.918 723.851 720.87 723.898C720.822 723.945 720.759 723.974 720.692 723.981C720.625 723.988 720.558 723.972 720.501 723.935L603.134 643.245C603.087 643.213 603.05 643.168 603.027 643.115C603.005 643.062 602.998 643.004 603.008 642.948Z" fill="#4800FF"/>
<path d="M303.975 723.882C303.897 724.025 303.771 724.085 303.597 724.061C303.558 724.056 303.523 724.038 303.495 724.01C303.467 723.983 303.45 723.947 303.444 723.908L303.354 723.261C303.774 722.913 304.28 722.293 304.874 721.4C325.92 690.067 347.596 657.955 369.901 625.064C373.48 619.777 377.076 614.502 380.691 609.239C381.86 607.53 381.833 606.029 384.503 606.577C398.926 609.538 408.61 611.571 413.555 612.674C413.993 612.772 414.393 612.995 414.709 613.315C415.025 613.636 415.242 614.04 415.336 614.481L421.234 642.499C421.292 642.778 421.266 643.068 421.158 643.332C421.051 643.596 420.868 643.822 420.632 643.982L303.975 723.882Z" fill="#4800FF"/>
</svg>
