<svg width="1024" height="1024" viewBox="0 0 1024 1024" fill="none" xmlns="http://www.w3.org/2000/svg">
<rect width="1024" height="1024" rx="100" fill="#4800FF"/>
<path d="M941.362 164.312C936.353 165.92 931.348 167.463 926.348 168.942C886.449 180.776 855.006 203.871 832.019 238.229C823.577 250.861 816.137 265.737 809.697 282.857C797.375 315.666 791.429 354.85 789.95 391.18C789.634 398.842 789.486 415.883 789.506 442.302C789.506 447.548 789.491 586.092 789.462 857.932C789.462 858.084 789.432 858.234 789.374 858.374C789.316 858.514 789.231 858.641 789.124 858.748C789.016 858.855 788.889 858.94 788.749 858.998C788.609 859.056 788.459 859.086 788.308 859.086H669.808C669.419 859.086 669.04 858.979 668.711 858.778C668.382 858.577 668.116 858.289 667.944 857.947L538.926 601.406C538.812 601.179 538.788 600.916 538.86 600.67C538.931 600.424 539.092 600.211 539.311 600.075C542.979 597.817 546.426 595.963 549.651 594.513C577.983 581.812 607.818 573.015 639.158 568.124C639.264 568.107 639.361 568.052 639.431 567.971C639.501 567.89 639.541 567.786 639.542 567.679C639.544 567.572 639.508 567.467 639.441 567.383C639.373 567.3 639.278 567.242 639.173 567.222C595.151 559.663 551.973 545.891 513.72 522.978C505.097 517.816 496.295 513.378 491.369 504.621C480.246 484.77 469.433 462.02 458.812 441.118C456.08 435.754 415.367 355.052 336.673 199.015C336.613 198.89 336.513 198.79 336.389 198.73C336.265 198.67 336.124 198.654 335.989 198.685C335.855 198.716 335.735 198.792 335.649 198.9C335.564 199.009 335.518 199.143 335.519 199.281C335.539 269.652 335.583 339.964 335.652 410.217C335.672 430.098 334.908 443.751 333.359 451.177C320.239 514.177 253.585 541.099 197.434 549.545C197.336 549.56 197.237 549.554 197.142 549.526C197.047 549.499 196.959 549.451 196.884 549.386C196.81 549.322 196.75 549.241 196.71 549.151C196.669 549.061 196.649 548.963 196.65 548.865V164.534C196.65 164.397 196.704 164.265 196.802 164.168C196.899 164.071 197.03 164.016 197.168 164.016C247.284 164.066 287.75 164.061 318.567 164.002C336.042 163.962 349.261 164.697 358.225 166.206C378.244 169.549 397.03 175.554 414.583 184.222C456.889 205.109 491.34 239.101 519.253 278.271C534.41 299.513 547.151 320.296 557.476 340.62C619.997 463.662 692.311 605.307 774.418 765.555C774.457 765.634 774.6 765.757 774.847 765.925C774.897 765.957 774.954 765.976 775.013 765.978C775.073 765.98 775.131 765.965 775.183 765.936C775.235 765.907 775.278 765.865 775.307 765.813C775.337 765.762 775.351 765.703 775.35 765.644C775.36 765.062 775.286 645.926 775.128 408.235C775.098 369.638 769.813 332.44 759.271 296.643C740.958 234.457 701.359 187.477 637.782 168.513C634.144 167.428 629.006 166.043 622.369 164.357C622.34 164.344 622.316 164.323 622.3 164.295C622.284 164.268 622.277 164.237 622.28 164.205C622.284 164.174 622.297 164.144 622.318 164.121C622.339 164.097 622.368 164.082 622.399 164.075H941.318C941.349 164.07 941.382 164.076 941.408 164.094C941.435 164.112 941.453 164.14 941.459 164.172C941.464 164.203 941.458 164.235 941.44 164.262C941.422 164.288 941.394 164.306 941.362 164.312Z" fill="white"/>
<path d="M399.628 423.9C400.101 423.9 400.431 425.695 400.619 429.284C401.881 454.135 404.509 477.177 408.503 498.408C412.26 518.348 420.5 539.412 438.664 549.19C459.95 560.639 487.893 563.509 513.158 566.349C513.245 566.364 513.325 566.41 513.383 566.478C513.441 566.545 513.473 566.631 513.475 566.72C513.477 566.809 513.448 566.896 513.392 566.966C513.337 567.036 513.26 567.084 513.173 567.103C496.117 569.499 479.328 571.127 462.761 575.239C447.924 578.922 433.088 585.135 423.635 597.693C411.121 614.32 407.423 636.582 404.805 657.868C402.517 676.457 400.954 693.226 400.116 708.176C400.007 710.109 399.805 711.076 399.509 711.076C399.204 711.076 399.002 710.109 398.903 708.176C398.075 693.226 396.526 676.457 394.258 657.868C391.655 636.582 387.972 614.305 375.472 597.679C366.035 585.105 351.198 578.878 336.362 575.195C319.794 571.068 303.005 569.426 285.965 567.014C285.878 566.995 285.8 566.947 285.745 566.877C285.69 566.807 285.66 566.72 285.662 566.631C285.664 566.542 285.697 566.456 285.754 566.389C285.812 566.321 285.892 566.276 285.979 566.26C311.244 563.435 339.187 560.595 360.488 549.16C378.652 539.397 386.906 518.333 390.678 498.408C394.692 477.177 397.34 454.135 398.622 429.284C398.809 425.695 399.145 423.9 399.628 423.9Z" fill="white"/>
<path d="M448.871 859.101H83.3559C83.2681 859.097 83.1843 859.063 83.1196 859.003C83.0548 858.944 83.0134 858.863 83.0027 858.776C82.9921 858.689 83.0128 858.601 83.0613 858.527C83.1097 858.454 83.1827 858.4 83.2672 858.376C130.661 847.149 172.464 817.283 188.691 770.569C193.967 755.373 196.61 738.998 196.62 721.445C196.649 650.689 196.639 606.036 196.59 587.486C196.591 587.397 196.611 587.308 196.649 587.227C196.687 587.146 196.742 587.074 196.809 587.016C196.877 586.958 196.955 586.916 197.04 586.893C197.125 586.869 197.214 586.865 197.3 586.88C230.73 592.057 264.116 603.107 291.852 622.721C317.294 640.738 334.054 669.642 335.178 700.78C335.607 712.259 335.296 730.039 337.19 742.257C344.399 788.468 369.082 822.51 411.239 844.382C414.435 846.039 421.49 849.096 432.407 853.554C438.206 855.92 444.803 857.118 448.989 858.346C449.08 858.372 449.158 858.43 449.208 858.509C449.259 858.588 449.279 858.683 449.264 858.776C449.25 858.869 449.202 858.953 449.129 859.013C449.057 859.073 448.965 859.104 448.871 859.101Z" fill="white"/>
</svg>
