<svg width="1024" height="1024" viewBox="0 0 1024 1024" fill="none" xmlns="http://www.w3.org/2000/svg">
<path d="M801.02 277.11C797.633 278.197 794.25 279.24 790.87 280.24C763.897 288.24 742.64 303.854 727.1 327.08C721.393 335.62 716.363 345.677 712.01 357.25C703.68 379.43 699.66 405.92 698.66 430.48C698.447 435.66 698.347 447.18 698.36 465.04C698.36 468.587 698.35 562.247 698.33 746.02C698.33 746.123 698.31 746.224 698.271 746.319C698.232 746.413 698.174 746.499 698.102 746.572C698.029 746.644 697.943 746.702 697.849 746.741C697.754 746.78 697.653 746.8 697.55 746.8H617.44C617.178 746.8 616.921 746.728 616.699 746.592C616.476 746.456 616.297 746.261 616.18 746.03L528.96 572.6C528.883 572.446 528.867 572.269 528.915 572.102C528.963 571.936 529.072 571.792 529.22 571.7C531.7 570.174 534.03 568.92 536.21 567.94C555.363 559.354 575.533 553.407 596.72 550.1C596.792 550.088 596.857 550.052 596.905 549.997C596.952 549.942 596.979 549.872 596.98 549.799C596.981 549.727 596.957 549.656 596.911 549.599C596.865 549.543 596.801 549.504 596.73 549.49C566.97 544.38 537.78 535.07 511.92 519.58C506.09 516.09 500.14 513.09 496.81 507.17C489.29 493.75 481.98 478.37 474.8 464.24C472.953 460.614 445.43 406.057 392.23 300.57C392.19 300.486 392.122 300.418 392.038 300.378C391.954 300.337 391.859 300.326 391.768 300.347C391.677 300.368 391.596 300.42 391.538 300.493C391.48 300.566 391.449 300.657 391.45 300.75C391.463 348.324 391.493 395.857 391.54 443.35C391.553 456.79 391.037 466.02 389.99 471.04C381.12 513.63 336.06 531.83 298.1 537.54C298.034 537.55 297.967 537.546 297.902 537.528C297.838 537.509 297.779 537.477 297.729 537.433C297.678 537.389 297.638 537.335 297.61 537.274C297.583 537.213 297.569 537.147 297.57 537.08V277.26C297.57 277.167 297.607 277.078 297.673 277.013C297.738 276.947 297.827 276.91 297.92 276.91C331.8 276.944 359.157 276.94 379.99 276.9C391.803 276.874 400.74 277.37 406.8 278.39C420.333 280.65 433.033 284.71 444.9 290.57C473.5 304.69 496.79 327.67 515.66 354.15C525.907 368.51 534.52 382.56 541.5 396.3C583.767 479.48 632.653 575.237 688.16 683.57C688.187 683.624 688.283 683.707 688.45 683.82C688.484 683.842 688.523 683.854 688.563 683.856C688.603 683.857 688.642 683.847 688.677 683.828C688.712 683.808 688.741 683.78 688.761 683.745C688.781 683.71 688.791 683.67 688.79 683.63C688.797 683.237 688.747 602.697 688.64 442.01C688.62 415.917 685.047 390.77 677.92 366.57C665.54 324.53 638.77 292.77 595.79 279.95C593.33 279.217 589.857 278.28 585.37 277.14C585.35 277.132 585.334 277.117 585.323 277.099C585.312 277.08 585.308 277.059 585.31 277.038C585.312 277.017 585.321 276.997 585.336 276.981C585.35 276.965 585.369 276.954 585.39 276.95H800.99C801.011 276.946 801.033 276.951 801.051 276.963C801.069 276.975 801.081 276.994 801.085 277.015C801.089 277.036 801.084 277.058 801.072 277.076C801.06 277.094 801.041 277.106 801.02 277.11Z" fill="#000000"/>
<path d="M434.79 452.6C435.11 452.6 435.333 453.813 435.46 456.24C436.313 473.04 438.09 488.617 440.79 502.97C443.33 516.45 448.9 530.69 461.18 537.3C475.57 545.04 494.46 546.98 511.54 548.9C511.599 548.911 511.653 548.941 511.692 548.987C511.731 549.033 511.753 549.091 511.755 549.151C511.756 549.211 511.736 549.27 511.699 549.317C511.661 549.364 511.609 549.397 511.55 549.41C500.02 551.03 488.67 552.13 477.47 554.91C467.44 557.4 457.41 561.6 451.02 570.09C442.56 581.33 440.06 596.38 438.29 610.77C436.743 623.337 435.687 634.673 435.12 644.78C435.047 646.087 434.91 646.74 434.71 646.74C434.503 646.74 434.367 646.087 434.3 644.78C433.74 634.673 432.693 623.337 431.16 610.77C429.4 596.38 426.91 581.32 418.46 570.08C412.08 561.58 402.05 557.37 392.02 554.88C380.82 552.09 369.47 550.98 357.95 549.35C357.891 549.337 357.839 549.304 357.802 549.257C357.764 549.21 357.744 549.151 357.746 549.091C357.747 549.031 357.769 548.973 357.808 548.927C357.847 548.881 357.901 548.851 357.96 548.84C375.04 546.93 393.93 545.01 408.33 537.28C420.61 530.68 426.19 516.44 428.74 502.97C431.453 488.617 433.243 473.04 434.11 456.24C434.237 453.813 434.463 452.6 434.79 452.6Z" fill="#000000"/>
<path d="M468.08 746.81H220.98C220.92 746.808 220.864 746.784 220.82 746.744C220.776 746.704 220.748 746.649 220.741 746.59C220.734 746.531 220.748 746.472 220.781 746.422C220.813 746.373 220.863 746.336 220.92 746.32C252.96 738.73 281.22 718.54 292.19 686.96C295.757 676.687 297.543 665.617 297.55 653.75C297.57 605.917 297.563 575.73 297.53 563.19C297.531 563.129 297.544 563.069 297.57 563.014C297.595 562.959 297.632 562.911 297.678 562.872C297.724 562.833 297.777 562.805 297.834 562.789C297.891 562.773 297.951 562.77 298.01 562.78C320.61 566.28 343.18 573.75 361.93 587.01C379.13 599.19 390.46 618.73 391.22 639.78C391.51 647.54 391.3 659.56 392.58 667.82C397.453 699.06 414.14 722.073 442.64 736.86C444.8 737.98 449.57 740.047 456.95 743.06C460.87 744.66 465.33 745.47 468.16 746.3C468.221 746.317 468.274 746.356 468.308 746.41C468.342 746.463 468.356 746.528 468.346 746.59C468.336 746.653 468.304 746.71 468.255 746.751C468.205 746.791 468.143 746.812 468.08 746.81Z" fill="#000000"/>
</svg>
