<svg width="1024" height="1024" viewBox="0 0 1024 1024" fill="none" xmlns="http://www.w3.org/2000/svg">
<path d="M369.48 430.456C369.48 430.569 369.413 430.629 369.28 430.635C361.933 431.075 355.02 432.845 348.54 435.945C329.48 445.055 318.1 462.466 316.4 483.676C316.404 483.737 316.384 483.797 316.343 483.843C316.303 483.888 316.246 483.917 316.185 483.921C316.124 483.924 316.064 483.904 316.018 483.864C315.972 483.823 315.944 483.767 315.94 483.706C315.43 481.196 315.49 478.166 314.89 475.586C309 450.076 290.17 433.226 264.23 430.646C264.077 430.632 264 430.572 264 430.465C264 430.359 264.077 430.299 264.23 430.285C290.17 427.695 309 410.846 314.88 385.336C315.48 382.756 315.42 379.725 315.93 377.215C315.934 377.154 315.962 377.098 316.008 377.057C316.054 377.017 316.114 376.997 316.175 377C316.236 377.004 316.293 377.033 316.333 377.078C316.374 377.124 316.394 377.184 316.39 377.245C318.09 398.455 329.48 415.865 348.54 424.965C355.02 428.065 361.933 429.836 369.28 430.276C369.413 430.282 369.48 430.342 369.48 430.456Z" fill="#000000"/>
<path d="M170.47 467.995C170.577 469.029 170.63 469.935 170.63 470.715C170.657 473.882 170.63 514.499 170.55 592.565C170.53 619.225 185.01 640.355 214.22 638.995C214.336 638.99 214.452 639.008 214.561 639.049C214.67 639.09 214.77 639.152 214.854 639.233C214.938 639.313 215.005 639.41 215.051 639.517C215.097 639.624 215.12 639.739 215.12 639.855V643.695C215.12 643.921 215.03 644.137 214.871 644.296C214.712 644.456 214.495 644.545 214.27 644.545H121.89C121.686 644.545 121.49 644.464 121.346 644.32C121.201 644.176 121.12 643.98 121.12 643.775V639.815C121.12 639.706 121.142 639.597 121.185 639.496C121.228 639.395 121.292 639.304 121.371 639.228C121.451 639.152 121.545 639.094 121.648 639.055C121.751 639.017 121.86 639 121.97 639.005C130.143 639.379 137.427 638.042 143.82 634.995C155.43 629.465 162.53 616.855 164.24 604.185C164.833 599.845 165.097 595.162 165.03 590.135C164.897 580.309 164.553 546.309 164 488.135C163.933 481.149 163.553 475.442 162.86 471.015C160.02 452.865 140.81 434.265 121.61 435.645C121.532 435.651 121.453 435.64 121.38 435.614C121.306 435.588 121.238 435.547 121.181 435.493C121.124 435.44 121.078 435.375 121.047 435.303C121.016 435.231 121 435.154 121 435.075V430.895C121 430.752 121.058 430.615 121.161 430.514C121.264 430.412 121.404 430.355 121.55 430.355H187.75C188.168 430.356 188.581 430.45 188.956 430.632C189.332 430.814 189.662 431.078 189.92 431.405L318.83 594.965C319.181 595.413 319.377 595.964 319.39 596.535L320.3 645.025C320.301 645.12 320.284 645.213 320.249 645.3C320.214 645.388 320.162 645.467 320.096 645.534C320.03 645.601 319.951 645.654 319.864 645.69C319.777 645.727 319.684 645.745 319.59 645.745H308.49C308.188 645.745 307.891 645.676 307.62 645.542C307.35 645.409 307.114 645.215 306.93 644.975L170.97 467.795C170.933 467.747 170.881 467.713 170.822 467.697C170.763 467.681 170.701 467.684 170.645 467.707C170.588 467.729 170.54 467.77 170.509 467.822C170.477 467.874 170.464 467.935 170.47 467.995Z" fill="#000000"/>
<path d="M319.5 490.5V644H314.5V490.5H319.5Z" fill="#000000"/>
<path d="M581 534.016C580.979 534.1 580.935 534.177 580.874 534.239C580.812 534.302 580.736 534.346 580.651 534.37C580.566 534.393 580.476 534.394 580.39 534.372C580.304 534.35 580.225 534.307 580.16 534.246C569.72 524.226 556.02 522.946 545.74 533.566C545.627 533.681 545.48 533.757 545.321 533.782C545.163 533.807 545.001 533.78 544.86 533.706C543.793 533.146 542.587 532.119 541.24 530.626C541.118 530.49 541.04 530.32 541.015 530.139C540.99 529.957 541.02 529.771 541.1 529.606C544.653 522.186 548.32 516.656 552.1 513.016C562.14 503.349 573.9 501.059 587.38 506.146C587.69 506.264 587.944 506.492 588.094 506.786C588.244 507.08 588.278 507.419 588.19 507.736L581 534.016Z" fill="#000000"/>
<path d="M686.02 534.055C685.997 534.14 685.953 534.218 685.891 534.28C685.829 534.343 685.753 534.388 685.668 534.413C685.584 534.437 685.494 534.439 685.409 534.418C685.323 534.398 685.245 534.355 685.18 534.295C674.64 524.315 660.88 523.125 650.65 533.845C650.537 533.965 650.389 534.044 650.229 534.071C650.068 534.098 649.903 534.071 649.76 533.995C648.687 533.442 647.47 532.422 646.11 530.935C645.985 530.798 645.904 530.627 645.878 530.443C645.851 530.26 645.88 530.072 645.96 529.905C649.474 522.439 653.114 516.865 656.88 513.185C666.887 503.419 678.67 501.042 692.23 506.055C692.54 506.171 692.796 506.398 692.948 506.692C693.099 506.986 693.136 507.326 693.05 507.645L686.02 534.055Z" fill="#000000"/>
<path d="M434.54 622.536C434.534 622.479 434.51 622.426 434.473 622.384C434.435 622.342 434.385 622.313 434.33 622.301C434.274 622.288 434.217 622.294 434.165 622.316C434.113 622.339 434.069 622.377 434.04 622.425C430.74 628.099 426.317 632.932 420.77 636.925C408.663 645.632 394.933 648.475 379.58 645.455C368.36 643.255 357.64 635.845 353.74 624.895C350.24 615.105 350.59 603.596 355.58 594.286C362.51 581.346 378.32 575.186 391.6 571.536C403.32 568.326 411.8 566.305 420.66 561.835C428.62 557.825 433.51 552.386 433.92 543.096C434.63 527.356 428.86 510.895 410.5 509.825C398.96 509.155 390.12 513.335 386 524.465C383.12 532.265 381.93 540.345 382.43 548.705C382.436 548.82 382.415 548.935 382.37 549.041C382.324 549.146 382.255 549.24 382.167 549.314C382.08 549.388 381.977 549.44 381.866 549.466C381.756 549.492 381.64 549.492 381.53 549.465L358.07 543.985C357.914 543.95 357.774 543.864 357.672 543.739C357.569 543.615 357.508 543.459 357.5 543.295C357.44 541.989 357.487 540.756 357.64 539.596C361.78 507.486 399.92 500.385 425.77 505.025C433.517 506.412 440.357 509.335 446.29 513.795C456.51 521.475 460.94 535.706 461 548.666C461.173 586.059 461.217 608.132 461.13 614.885C461.04 621.865 461.76 632.585 470.7 632.735C474.86 632.809 478.127 630.992 480.5 627.286C480.526 627.241 480.563 627.205 480.607 627.178C480.651 627.152 480.701 627.136 480.753 627.133C480.805 627.13 480.857 627.14 480.905 627.161C480.954 627.182 480.996 627.215 481.03 627.255L484.17 631.255C484.199 631.288 484.217 631.329 484.22 631.372C484.224 631.415 484.213 631.459 484.19 631.495C477.56 642.395 465.83 648.445 453.14 645.755C442.093 643.415 435.893 635.676 434.54 622.536ZM434.34 558.795C434.339 558.722 434.316 558.651 434.275 558.591C434.233 558.531 434.175 558.484 434.107 558.458C434.04 558.432 433.967 558.427 433.897 558.445C433.828 558.462 433.766 558.501 433.72 558.555C425.05 568.305 413.94 572.025 400.41 578.085C393.61 581.125 385.56 587.865 382.25 594.855C378.15 603.525 377.37 616.965 383.64 625.195C395.16 640.315 417.69 635.475 428 621.995C433.16 615.255 434.09 609.125 434.27 600.625C434.323 598.079 434.347 584.135 434.34 558.795Z" fill="#000000"/>
<path d="M535.25 503.735C535.309 503.713 535.372 503.705 535.435 503.712C535.497 503.719 535.557 503.741 535.609 503.777C535.661 503.812 535.704 503.86 535.734 503.915C535.763 503.971 535.779 504.033 535.78 504.095V536.005C535.78 536.069 535.797 536.132 535.829 536.186C535.86 536.24 535.906 536.285 535.96 536.315L541.54 539.535C541.586 539.564 541.621 539.609 541.637 539.662C541.654 539.715 541.651 539.773 541.63 539.825C538.503 547.139 536.92 555.079 536.88 563.645C536.793 581.199 536.777 596.829 536.83 610.535C536.87 621.115 535.63 635.545 549.05 638.065C552.31 638.679 555.19 639.009 557.69 639.055C557.904 639.061 558.107 639.149 558.257 639.303C558.406 639.456 558.49 639.661 558.49 639.875V643.335C558.49 643.537 558.41 643.73 558.267 643.873C558.125 644.015 557.932 644.095 557.73 644.095H494.16C494.101 644.095 494.043 644.084 493.989 644.062C493.935 644.039 493.886 644.007 493.845 643.966C493.804 643.925 493.772 643.876 493.751 643.823C493.729 643.77 493.719 643.713 493.72 643.655L493.8 639.625C493.801 639.562 493.815 639.5 493.841 639.443C493.868 639.385 493.905 639.334 493.952 639.292C493.999 639.25 494.054 639.217 494.114 639.197C494.174 639.177 494.237 639.17 494.3 639.175C494.513 639.195 495.823 639.022 498.23 638.655C510.17 636.855 510.58 626.655 510.6 617.105C510.68 588.392 510.677 562.765 510.59 540.225C510.577 536.192 509.913 532.545 508.6 529.285C506.51 524.115 500.3 522.695 494.67 522.345C494.499 522.335 494.339 522.26 494.222 522.136C494.105 522.011 494.04 521.846 494.04 521.675V518.205C494.04 518.01 494.106 517.821 494.228 517.668C494.349 517.515 494.52 517.409 494.71 517.365C508.27 514.355 521.87 509.105 535.25 503.735Z" fill="#000000"/>
<path d="M640.37 503.796C640.428 503.773 640.492 503.765 640.554 503.772C640.617 503.779 640.677 503.802 640.729 503.837C640.781 503.872 640.824 503.92 640.853 503.975C640.883 504.031 640.899 504.093 640.9 504.156V536.066C640.9 536.129 640.917 536.192 640.948 536.246C640.98 536.301 641.025 536.345 641.08 536.376L646.65 539.586C646.696 539.614 646.731 539.659 646.747 539.712C646.764 539.765 646.761 539.823 646.74 539.876C643.62 547.189 642.04 555.129 642 563.696C641.913 581.242 641.893 596.869 641.94 610.576C641.98 621.146 640.74 635.576 654.16 638.096C657.42 638.709 660.3 639.039 662.8 639.086C663.014 639.091 663.217 639.179 663.367 639.333C663.516 639.486 663.6 639.691 663.6 639.906V643.366C663.6 643.567 663.52 643.76 663.377 643.903C663.235 644.045 663.041 644.126 662.84 644.126H599.28C599.221 644.126 599.163 644.114 599.109 644.092C599.055 644.07 599.006 644.037 598.965 643.996C598.924 643.955 598.892 643.906 598.87 643.853C598.849 643.8 598.838 643.743 598.84 643.686L598.92 639.656C598.921 639.592 598.935 639.53 598.961 639.473C598.987 639.415 599.025 639.364 599.072 639.322C599.119 639.28 599.174 639.248 599.234 639.228C599.294 639.207 599.357 639.2 599.42 639.206C599.633 639.226 600.943 639.052 603.35 638.686C615.29 636.886 615.7 626.686 615.72 617.146C615.8 588.439 615.796 562.816 615.71 540.276C615.696 536.249 615.033 532.606 613.72 529.346C611.63 524.176 605.43 522.756 599.8 522.406C599.629 522.395 599.469 522.32 599.352 522.196C599.234 522.071 599.169 521.907 599.17 521.736V518.266C599.169 518.07 599.236 517.881 599.357 517.728C599.479 517.575 599.649 517.469 599.84 517.426C613.39 514.416 626.99 509.166 640.37 503.796Z" fill="#000000"/>
<path d="M704.89 644.106C704.831 644.106 704.773 644.094 704.718 644.071C704.663 644.049 704.614 644.016 704.572 643.974C704.53 643.932 704.497 643.882 704.474 643.828C704.452 643.773 704.44 643.715 704.44 643.656V639.866C704.44 639.71 704.497 639.559 704.603 639.443C704.708 639.327 704.853 639.253 705.01 639.236C711.44 638.546 717.38 637.256 719.41 630.586C720.364 627.466 720.847 624.296 720.86 621.076C720.98 571.549 721.04 545.986 721.04 544.386C721.04 536.656 721.22 526.866 712.98 523.826C711.494 523.279 708.924 522.812 705.27 522.426C705.088 522.406 704.92 522.32 704.798 522.185C704.676 522.051 704.609 521.876 704.61 521.696V518.386C704.61 518.189 704.677 517.998 704.801 517.844C704.924 517.689 705.097 517.581 705.29 517.536C719.164 514.302 732.7 509.706 745.9 503.746C746.036 503.684 746.185 503.657 746.334 503.667C746.482 503.678 746.626 503.726 746.752 503.806C746.877 503.887 746.98 503.998 747.052 504.129C747.123 504.26 747.16 504.406 747.16 504.556C747.26 537.242 747.314 574.852 747.32 617.386C747.32 620.646 747.687 624.039 748.42 627.566C750.12 635.776 756.23 638.906 764.08 639.066C764.293 639.068 764.497 639.155 764.647 639.306C764.796 639.458 764.88 639.662 764.88 639.876V643.366C764.88 643.562 764.802 643.75 764.664 643.889C764.525 644.028 764.337 644.106 764.14 644.106H704.89Z" fill="#000000"/>
<path d="M840.38 640.656C848.28 640.656 855.14 638.005 860.43 631.695C869.2 621.265 872.86 606.656 874.35 593.096C875.85 579.476 875.683 566.069 873.85 552.875C871.6 536.705 864.26 512.285 844.89 509.785C844.65 509.756 844.429 509.639 844.269 509.457C844.109 509.275 844.02 509.039 844.02 508.796V504.336C844.02 504.234 844.04 504.134 844.081 504.042C844.122 503.949 844.182 503.865 844.257 503.797C844.332 503.728 844.421 503.676 844.518 503.643C844.615 503.61 844.718 503.597 844.82 503.606C867.373 505.672 883.933 516.489 894.5 536.055C906.37 558.055 906.29 587.875 896.33 609.995C886.03 632.895 865.36 646.555 840.38 646.555C815.4 646.545 794.73 632.876 784.44 609.966C774.5 587.836 774.44 558.016 786.32 536.026C796.9 516.466 813.467 505.659 836.02 503.606C836.122 503.597 836.225 503.61 836.322 503.643C836.419 503.676 836.508 503.728 836.583 503.797C836.658 503.865 836.718 503.949 836.759 504.042C836.8 504.134 836.82 504.234 836.82 504.336V508.796C836.819 509.041 836.729 509.278 836.567 509.46C836.405 509.643 836.182 509.759 835.94 509.785C816.57 512.275 809.22 536.685 806.96 552.855C805.12 566.049 804.947 579.456 806.44 593.076C807.92 606.636 811.57 621.245 820.33 631.685C825.62 637.995 832.48 640.656 840.38 640.656Z" fill="#000000"/>
</svg>
