<svg width="783" height="270" viewBox="0 0 783 270" fill="none" xmlns="http://www.w3.org/2000/svg">
<path d="M248.48 53.4555C248.48 53.5688 248.413 53.6288 248.28 53.6355C240.933 54.0755 234.02 55.8455 227.54 58.9455C208.48 68.0555 197.1 85.4655 195.4 106.676C195.404 106.737 195.384 106.797 195.343 106.843C195.303 106.888 195.246 106.917 195.185 106.921C195.124 106.924 195.064 106.904 195.018 106.864C194.972 106.823 194.944 106.767 194.94 106.706C194.43 104.196 194.49 101.166 193.89 98.5855C188 73.0755 169.17 56.2255 143.23 53.6455C143.077 53.6322 143 53.5722 143 53.4655C143 53.3588 143.077 53.2988 143.23 53.2855C169.17 50.6955 188 33.8455 193.88 8.33551C194.48 5.75551 194.42 2.72549 194.93 0.215485C194.934 0.154486 194.962 0.097572 195.008 0.0572517C195.054 0.0169313 195.114 -0.00348929 195.175 0.000488957C195.236 0.0044672 195.293 0.032515 195.333 0.0784614C195.374 0.124408 195.394 0.184484 195.39 0.245484C197.09 21.4555 208.48 38.8655 227.54 47.9655C234.02 51.0655 240.933 52.8355 248.28 53.2755C248.413 53.2822 248.48 53.3422 248.48 53.4555Z" fill="#4800FF"/>
<path d="M49.47 90.9955C49.5767 92.0288 49.63 92.9355 49.63 93.7155C49.6567 96.8821 49.63 137.499 49.55 215.565C49.53 242.225 64.01 263.355 93.22 261.995C93.3363 261.99 93.4524 262.008 93.5614 262.049C93.6704 262.09 93.77 262.152 93.8541 262.233C93.9383 262.313 94.0052 262.41 94.0509 262.517C94.0966 262.624 94.1201 262.739 94.12 262.855V266.695C94.12 266.921 94.0304 267.137 93.871 267.296C93.7116 267.456 93.4954 267.545 93.27 267.545H0.890001C0.685784 267.545 0.489932 267.464 0.345529 267.32C0.201126 267.176 0.119997 266.98 0.119997 266.775V262.815C0.119863 262.706 0.142066 262.597 0.185251 262.496C0.228436 262.395 0.291698 262.304 0.371202 262.228C0.450706 262.152 0.544792 262.094 0.64773 262.055C0.750668 262.017 0.860307 262 0.969995 262.005C9.14333 262.379 16.4267 261.042 22.82 257.995C34.43 252.465 41.53 239.855 43.24 227.185C43.8333 222.845 44.0967 218.162 44.03 213.135C43.8967 203.309 43.5533 169.309 43 111.135C42.9333 104.149 42.5533 98.4421 41.86 94.0155C39.02 75.8655 19.81 57.2655 0.610002 58.6455C0.531854 58.651 0.453405 58.6403 0.379564 58.6141C0.305724 58.588 0.238075 58.5468 0.180834 58.4933C0.123593 58.4399 0.0779902 58.3752 0.0468767 58.3033C0.0157633 58.2314 -0.000191423 58.1538 1.73306e-06 58.0755V53.8955C1.73306e-06 53.7523 0.0579438 53.6149 0.161089 53.5136C0.264234 53.4124 0.404128 53.3555 0.549997 53.3555H66.75C67.1681 53.3556 67.5805 53.4501 67.9563 53.632C68.3322 53.8138 68.6616 54.0783 68.92 54.4055L197.83 217.965C198.181 218.413 198.377 218.964 198.39 219.535L199.3 268.025C199.301 268.12 199.284 268.213 199.249 268.3C199.214 268.388 199.162 268.467 199.096 268.534C199.03 268.601 198.951 268.654 198.864 268.69C198.777 268.727 198.684 268.745 198.59 268.745H187.49C187.188 268.745 186.891 268.676 186.62 268.542C186.35 268.409 186.114 268.215 185.93 267.975L49.97 90.7955C49.9328 90.7473 49.8808 90.7126 49.8221 90.6966C49.7634 90.6806 49.701 90.6842 49.6445 90.7068C49.588 90.7294 49.5404 90.7698 49.5089 90.8219C49.4774 90.874 49.4638 90.9349 49.47 90.9955Z" fill="#4800FF"/>
<path d="M198.5 113.5V267H193.5V113.5H198.5Z" fill="#4800FF"/>
<path d="M460 157.016C459.979 157.1 459.935 157.177 459.874 157.239C459.812 157.302 459.736 157.346 459.651 157.37C459.566 157.393 459.476 157.394 459.39 157.372C459.304 157.35 459.225 157.307 459.16 157.246C448.72 147.226 435.02 145.946 424.74 156.566C424.627 156.681 424.48 156.757 424.321 156.782C424.163 156.807 424.001 156.78 423.86 156.706C422.793 156.146 421.587 155.119 420.24 153.626C420.118 153.49 420.04 153.32 420.015 153.139C419.99 152.957 420.02 152.771 420.1 152.606C423.653 145.186 427.32 139.656 431.1 136.016C441.14 126.349 452.9 124.059 466.38 129.146C466.69 129.264 466.944 129.492 467.094 129.786C467.244 130.08 467.278 130.419 467.19 130.736L460 157.016Z" fill="#4800FF"/>
<path d="M565.02 157.055C564.997 157.14 564.953 157.218 564.891 157.28C564.829 157.343 564.753 157.388 564.668 157.413C564.584 157.437 564.494 157.439 564.409 157.418C564.323 157.398 564.245 157.355 564.18 157.295C553.64 147.315 539.88 146.125 529.65 156.845C529.537 156.965 529.389 157.044 529.229 157.071C529.068 157.098 528.903 157.071 528.76 156.995C527.687 156.442 526.47 155.422 525.11 153.935C524.985 153.798 524.904 153.627 524.878 153.443C524.851 153.26 524.88 153.072 524.96 152.905C528.474 145.439 532.114 139.865 535.88 136.185C545.887 126.419 557.67 124.042 571.23 129.055C571.54 129.171 571.796 129.398 571.948 129.692C572.099 129.986 572.136 130.326 572.05 130.645L565.02 157.055Z" fill="#4800FF"/>
<path d="M313.54 245.536C313.534 245.479 313.51 245.426 313.473 245.384C313.435 245.342 313.385 245.313 313.33 245.301C313.274 245.288 313.217 245.294 313.165 245.316C313.113 245.339 313.069 245.377 313.04 245.425C309.74 251.099 305.317 255.932 299.77 259.925C287.663 268.632 273.933 271.475 258.58 268.455C247.36 266.255 236.64 258.845 232.74 247.895C229.24 238.105 229.59 226.596 234.58 217.286C241.51 204.346 257.32 198.186 270.6 194.536C282.32 191.326 290.8 189.305 299.66 184.835C307.62 180.825 312.51 175.386 312.92 166.096C313.63 150.356 307.86 133.895 289.5 132.825C277.96 132.155 269.12 136.335 265 147.465C262.12 155.265 260.93 163.345 261.43 171.705C261.436 171.82 261.415 171.935 261.37 172.041C261.324 172.146 261.255 172.24 261.167 172.314C261.08 172.388 260.977 172.44 260.866 172.466C260.756 172.492 260.64 172.492 260.53 172.465L237.07 166.985C236.914 166.95 236.774 166.864 236.672 166.739C236.569 166.615 236.508 166.459 236.5 166.295C236.44 164.989 236.487 163.756 236.64 162.596C240.78 130.486 278.92 123.385 304.77 128.025C312.517 129.412 319.357 132.335 325.29 136.795C335.51 144.475 339.94 158.706 340 171.666C340.173 209.059 340.217 231.132 340.13 237.885C340.04 244.865 340.76 255.585 349.7 255.735C353.86 255.809 357.127 253.992 359.5 250.286C359.526 250.241 359.563 250.205 359.607 250.178C359.651 250.152 359.701 250.136 359.753 250.133C359.805 250.13 359.857 250.14 359.905 250.161C359.954 250.182 359.996 250.215 360.03 250.255L363.17 254.255C363.199 254.288 363.217 254.329 363.22 254.372C363.224 254.415 363.213 254.459 363.19 254.495C356.56 265.395 344.83 271.445 332.14 268.755C321.093 266.415 314.893 258.676 313.54 245.536ZM313.34 181.795C313.339 181.722 313.316 181.651 313.275 181.591C313.233 181.531 313.175 181.484 313.107 181.458C313.04 181.432 312.967 181.427 312.897 181.445C312.828 181.462 312.766 181.501 312.72 181.555C304.05 191.305 292.94 195.025 279.41 201.085C272.61 204.125 264.56 210.865 261.25 217.855C257.15 226.525 256.37 239.965 262.64 248.195C274.16 263.315 296.69 258.475 307 244.995C312.16 238.255 313.09 232.125 313.27 223.625C313.323 221.079 313.347 207.135 313.34 181.795Z" fill="#4800FF"/>
<path d="M414.25 126.735C414.309 126.713 414.372 126.705 414.435 126.712C414.497 126.719 414.557 126.741 414.609 126.777C414.661 126.812 414.704 126.86 414.734 126.915C414.763 126.971 414.779 127.033 414.78 127.095V159.005C414.78 159.069 414.797 159.132 414.829 159.186C414.86 159.24 414.906 159.285 414.96 159.315L420.54 162.535C420.586 162.564 420.621 162.609 420.637 162.662C420.654 162.715 420.651 162.773 420.63 162.825C417.503 170.139 415.92 178.079 415.88 186.645C415.793 204.199 415.777 219.829 415.83 233.535C415.87 244.115 414.63 258.545 428.05 261.065C431.31 261.679 434.19 262.009 436.69 262.055C436.904 262.061 437.107 262.149 437.257 262.303C437.406 262.456 437.49 262.661 437.49 262.875V266.335C437.49 266.537 437.41 266.73 437.267 266.873C437.125 267.015 436.932 267.095 436.73 267.095H373.16C373.101 267.095 373.043 267.084 372.989 267.062C372.935 267.039 372.886 267.007 372.845 266.966C372.804 266.925 372.772 266.876 372.751 266.823C372.729 266.77 372.719 266.713 372.72 266.655L372.8 262.625C372.801 262.562 372.815 262.5 372.841 262.443C372.868 262.385 372.905 262.334 372.952 262.292C372.999 262.25 373.054 262.217 373.114 262.197C373.174 262.177 373.237 262.17 373.3 262.175C373.513 262.195 374.823 262.022 377.23 261.655C389.17 259.855 389.58 249.655 389.6 240.105C389.68 211.392 389.677 185.765 389.59 163.225C389.577 159.192 388.913 155.545 387.6 152.285C385.51 147.115 379.3 145.695 373.67 145.345C373.499 145.335 373.339 145.26 373.222 145.136C373.105 145.011 373.04 144.846 373.04 144.675V141.205C373.04 141.01 373.106 140.821 373.228 140.668C373.349 140.515 373.52 140.409 373.71 140.365C387.27 137.355 400.87 132.105 414.25 126.735Z" fill="#4800FF"/>
<path d="M519.37 126.796C519.428 126.773 519.492 126.765 519.554 126.772C519.617 126.779 519.677 126.802 519.729 126.837C519.781 126.872 519.824 126.92 519.853 126.975C519.883 127.031 519.899 127.093 519.9 127.156V159.066C519.9 159.129 519.917 159.192 519.948 159.246C519.98 159.301 520.025 159.345 520.08 159.376L525.65 162.586C525.696 162.614 525.731 162.659 525.747 162.712C525.764 162.765 525.761 162.823 525.74 162.876C522.62 170.189 521.04 178.129 521 186.696C520.913 204.242 520.893 219.869 520.94 233.576C520.98 244.146 519.74 258.576 533.16 261.096C536.42 261.709 539.3 262.039 541.8 262.086C542.014 262.091 542.217 262.179 542.367 262.333C542.516 262.486 542.6 262.691 542.6 262.906V266.366C542.6 266.567 542.52 266.76 542.377 266.903C542.235 267.045 542.041 267.126 541.84 267.126H478.28C478.221 267.126 478.163 267.114 478.109 267.092C478.055 267.07 478.006 267.037 477.965 266.996C477.924 266.955 477.892 266.906 477.87 266.853C477.849 266.8 477.838 266.743 477.84 266.686L477.92 262.656C477.921 262.592 477.935 262.53 477.961 262.473C477.987 262.415 478.025 262.364 478.072 262.322C478.119 262.28 478.174 262.248 478.234 262.228C478.294 262.207 478.357 262.2 478.42 262.206C478.633 262.226 479.943 262.052 482.35 261.686C494.29 259.886 494.7 249.686 494.72 240.146C494.8 211.439 494.796 185.816 494.71 163.276C494.696 159.249 494.033 155.606 492.72 152.346C490.63 147.176 484.43 145.756 478.8 145.406C478.629 145.395 478.469 145.32 478.352 145.196C478.234 145.071 478.169 144.907 478.17 144.736V141.266C478.169 141.07 478.236 140.881 478.357 140.728C478.479 140.575 478.649 140.469 478.84 140.426C492.39 137.416 505.99 132.166 519.37 126.796Z" fill="#4800FF"/>
<path d="M583.89 267.106C583.831 267.106 583.773 267.094 583.718 267.071C583.663 267.049 583.614 267.016 583.572 266.974C583.53 266.932 583.497 266.882 583.474 266.828C583.452 266.773 583.44 266.715 583.44 266.656V262.866C583.44 262.71 583.497 262.559 583.603 262.443C583.708 262.327 583.853 262.253 584.01 262.236C590.44 261.546 596.38 260.256 598.41 253.586C599.364 250.466 599.847 247.296 599.86 244.076C599.98 194.549 600.04 168.986 600.04 167.386C600.04 159.656 600.22 149.866 591.98 146.826C590.494 146.279 587.924 145.812 584.27 145.426C584.088 145.406 583.92 145.32 583.798 145.185C583.676 145.051 583.609 144.876 583.61 144.696V141.386C583.61 141.189 583.677 140.998 583.801 140.844C583.924 140.689 584.097 140.581 584.29 140.536C598.164 137.302 611.7 132.706 624.9 126.746C625.036 126.684 625.185 126.657 625.334 126.667C625.482 126.678 625.626 126.726 625.752 126.806C625.877 126.887 625.98 126.998 626.052 127.129C626.123 127.26 626.16 127.406 626.16 127.556C626.26 160.242 626.314 197.852 626.32 240.386C626.32 243.646 626.687 247.039 627.42 250.566C629.12 258.776 635.23 261.906 643.08 262.066C643.293 262.068 643.497 262.155 643.647 262.306C643.796 262.458 643.88 262.662 643.88 262.876V266.366C643.88 266.562 643.802 266.75 643.664 266.889C643.525 267.028 643.337 267.106 643.14 267.106H583.89Z" fill="#4800FF"/>
<path d="M719.38 263.656C727.28 263.656 734.14 261.005 739.43 254.695C748.2 244.265 751.86 229.656 753.35 216.096C754.85 202.476 754.683 189.069 752.85 175.875C750.6 159.705 743.26 135.285 723.89 132.785C723.65 132.756 723.429 132.639 723.269 132.457C723.109 132.275 723.02 132.039 723.02 131.796V127.336C723.02 127.234 723.04 127.134 723.081 127.042C723.122 126.949 723.182 126.865 723.257 126.797C723.332 126.728 723.421 126.676 723.518 126.643C723.615 126.61 723.718 126.597 723.82 126.606C746.373 128.672 762.933 139.489 773.5 159.055C785.37 181.055 785.29 210.875 775.33 232.995C765.03 255.895 744.36 269.555 719.38 269.555C694.4 269.545 673.73 255.876 663.44 232.966C653.5 210.836 653.44 181.016 665.32 159.026C675.9 139.466 692.467 128.659 715.02 126.606C715.122 126.597 715.225 126.61 715.322 126.643C715.419 126.676 715.508 126.728 715.583 126.797C715.658 126.865 715.718 126.949 715.759 127.042C715.8 127.134 715.82 127.234 715.82 127.336V131.796C715.819 132.041 715.729 132.278 715.567 132.46C715.405 132.643 715.182 132.759 714.94 132.785C695.57 135.275 688.22 159.685 685.96 175.855C684.12 189.049 683.947 202.456 685.44 216.076C686.92 229.636 690.57 244.245 699.33 254.685C704.62 260.995 711.48 263.656 719.38 263.656Z" fill="#4800FF"/>
</svg>
