<svg width="1024" height="1024" viewBox="0 0 1024 1024" fill="none" xmlns="http://www.w3.org/2000/svg">
<path d="M500.537 736.171C500.536 736.273 500.507 736.373 500.454 736.46C500.401 736.547 500.325 736.618 500.235 736.666C500.144 736.713 500.043 736.735 499.941 736.73C499.839 736.724 499.74 736.691 499.656 736.634C487.899 728.389 476.538 721.636 465.29 713.968C456.941 708.276 447.673 702.249 437.486 695.887C435.875 694.879 433.786 694.382 431.219 694.397C414.459 694.502 368.063 694.483 292.029 694.34C291.359 694.333 289.8 694.374 287.353 694.464C287.172 694.471 286.991 694.44 286.821 694.375C286.651 694.309 286.497 694.21 286.366 694.084C286.235 693.957 286.131 693.806 286.06 693.639C285.99 693.471 285.953 693.291 285.953 693.109L285.964 375.497C285.964 375.156 286.1 374.828 286.342 374.587C286.583 374.345 286.91 374.21 287.252 374.21C351.518 374.232 397.888 374.213 426.362 374.153C432.449 374.142 435.363 373.758 439.632 376.694C445.038 380.406 449.713 383.47 453.658 385.887C469.062 395.306 483.777 405.345 499.565 414.945C499.865 415.127 500.113 415.383 500.285 415.69C500.457 415.997 500.548 416.343 500.548 416.695L500.537 736.171Z" fill="#4800FF"/>
<path d="M584.378 376.716C588.646 373.78 591.56 374.164 597.647 374.175C606.184 374.193 616.329 374.206 628.083 374.217L643.955 454.568C644.04 454.987 644.268 455.364 644.6 455.634C644.932 455.904 645.348 456.052 645.776 456.051C646.735 456.062 650.474 456.067 656.992 456.067H668.208C668.636 456.063 669.05 455.912 669.379 455.639C669.708 455.366 669.932 454.987 670.013 454.568L685.908 374.245C701.388 374.247 718.338 374.247 736.759 374.242C736.928 374.242 737.095 374.276 737.251 374.341C737.407 374.406 737.549 374.5 737.669 374.619C737.788 374.739 737.883 374.881 737.948 375.037C738.013 375.193 738.046 375.361 738.046 375.53V693.142C738.046 693.323 738.009 693.504 737.938 693.671C737.867 693.838 737.763 693.99 737.633 694.116C737.502 694.243 737.347 694.342 737.177 694.407C737.008 694.473 736.827 694.503 736.645 694.497C734.198 694.407 732.64 694.366 731.969 694.373C655.936 694.509 609.539 694.523 592.78 694.418C590.213 694.403 588.124 694.9 586.512 695.909C576.326 702.271 567.058 708.298 558.709 713.989C547.461 721.657 536.1 728.411 524.344 736.655C524.259 736.713 524.16 736.745 524.058 736.751C523.956 736.757 523.855 736.734 523.764 736.687C523.674 736.639 523.598 736.569 523.545 736.482C523.492 736.395 523.463 736.294 523.462 736.193V416.717C523.462 416.365 523.553 416.018 523.725 415.711C523.897 415.405 524.146 415.148 524.445 414.966C540.233 405.367 554.948 395.327 570.352 385.908C574.297 383.492 578.972 380.427 584.378 376.716Z" fill="#4800FF"/>
<path d="M271.984 797.266H468.69L555.321 797.255L752.027 797.198C753.558 797.198 755.042 796.654 756.217 795.662L800.498 758.225C800.97 757.828 801.349 757.331 801.608 756.769C801.868 756.207 802.001 755.594 802 754.973L801.898 416.795C801.895 416.396 801.735 416.014 801.451 415.733C801.168 415.451 800.784 415.293 800.385 415.293L761.931 415.305C761.617 415.305 761.315 415.431 761.093 415.655C760.871 415.88 760.746 416.184 760.746 416.502L760.836 733.335C760.836 733.634 760.716 733.921 760.502 734.133C760.288 734.345 759.998 734.464 759.695 734.464C710.404 734.374 647.399 734.351 570.68 734.396C568.331 734.408 566.4 735.142 564.299 736.587C547.325 748.355 529.121 759.614 514.191 769.97C513.461 770.474 512.73 770.727 512 770.727C511.27 770.727 510.543 770.474 509.82 769.97C494.879 759.614 476.675 748.366 459.69 736.598C457.589 735.153 455.658 734.419 453.309 734.419C376.59 734.389 313.585 734.426 264.293 734.532C263.991 734.532 263.701 734.413 263.487 734.201C263.273 733.989 263.153 733.702 263.153 733.402V416.57C263.153 416.412 263.122 416.257 263.062 416.112C263.003 415.966 262.916 415.834 262.805 415.723C262.695 415.612 262.565 415.524 262.421 415.464C262.277 415.403 262.123 415.373 261.967 415.373H223.513C223.315 415.373 223.118 415.412 222.934 415.488C222.751 415.564 222.584 415.675 222.443 415.816C222.303 415.956 222.191 416.123 222.115 416.307C222.039 416.49 222 416.687 222 416.886V755.063C222 755.682 222.135 756.294 222.394 756.853C222.654 757.413 223.032 757.908 223.502 758.304L267.794 795.73C268.969 796.722 270.453 797.266 271.984 797.266Z" fill="#4800FF"/>
<path d="M656.976 226.011C661.576 226.011 664.181 226.011 664.791 226.011C665.111 226.01 665.423 226.121 665.672 226.325C665.921 226.529 666.092 226.813 666.157 227.129L680.059 297.125C680.119 297.422 680.266 297.695 680.481 297.908C680.696 298.121 680.97 298.265 681.268 298.322L751.162 312.134C751.572 312.213 751.942 312.433 752.208 312.756C752.473 313.08 752.619 313.487 752.619 313.907V329.141C752.618 329.523 752.487 329.893 752.246 330.188C752.005 330.482 751.67 330.683 751.297 330.756L681.098 344.704C680.828 344.757 680.579 344.889 680.384 345.084C680.189 345.28 680.056 345.528 680.003 345.799L666.157 415.874C666.1 416.171 665.941 416.439 665.709 416.633C665.476 416.826 662.135 423.681 661.833 423.683C661.148 423.683 661.599 424.167 656.999 424.167C652.392 424.167 653.327 423.691 652.649 423.683C652.346 423.684 648.429 416.821 648.194 416.629C647.959 416.438 647.798 416.171 647.738 415.874L633.915 345.788C633.862 345.517 633.729 345.268 633.534 345.073C633.339 344.878 633.09 344.745 632.82 344.692L562.621 330.734C562.248 330.661 561.913 330.46 561.672 330.165C561.431 329.87 561.3 329.501 561.299 329.119L561.311 313.884C561.31 313.464 561.456 313.057 561.722 312.734C561.988 312.41 562.357 312.19 562.767 312.111L632.662 298.311C632.959 298.254 633.233 298.11 633.448 297.896C633.663 297.683 633.81 297.411 633.87 297.114L647.795 227.129C647.857 226.813 648.026 226.527 648.273 226.322C648.52 226.116 648.83 226.002 649.15 226C649.767 226 652.376 226.004 656.976 226.011Z" fill="#4800FF"/>
</svg>
