<svg width="1024" height="1024" viewBox="0 0 1024 1024" fill="none" xmlns="http://www.w3.org/2000/svg">
<path d="M511.627 251C532.244 251.006 552.826 251.009 573.374 251.009C573.566 251.009 573.75 251.085 573.886 251.221C574.021 251.356 574.097 251.54 574.097 251.732V255.489C574.098 255.55 574.085 255.611 574.06 255.666C574.035 255.722 573.999 255.773 573.953 255.814C573.907 255.855 573.852 255.886 573.793 255.905C573.734 255.924 573.671 255.931 573.609 255.925C572.11 255.768 568.78 256.361 566.636 256.727C546.527 260.161 537.576 275.38 537.567 294.486C537.544 382.848 537.523 436.861 537.506 456.525C537.508 456.583 537.49 456.64 537.455 456.686C537.42 456.732 537.371 456.765 537.314 456.78C537.257 456.795 537.197 456.791 537.141 456.768C537.086 456.746 537.04 456.706 537.009 456.656C533.284 450.072 530.268 443.139 527.961 435.858C525.004 426.549 522.961 418.794 521.834 412.594C519.846 401.658 518.609 394.821 518.12 392.084C518.104 391.986 518.052 391.896 517.974 391.831C517.896 391.766 517.797 391.729 517.693 391.727C517.426 391.727 515.404 391.727 511.627 391.727C507.855 391.727 505.836 391.727 505.569 391.727C505.465 391.729 505.366 391.766 505.288 391.831C505.21 391.896 505.158 391.986 505.142 392.084C504.654 394.821 503.416 401.658 501.428 412.594C500.301 418.794 498.259 426.549 495.301 435.858C493 443.139 489.987 450.072 486.262 456.656C486.231 456.706 486.185 456.746 486.129 456.768C486.074 456.791 486.014 456.795 485.957 456.78C485.9 456.765 485.851 456.732 485.816 456.686C485.781 456.64 485.763 456.583 485.765 456.525C485.742 436.861 485.716 382.848 485.687 294.486C485.678 275.38 476.726 260.161 456.617 256.735C454.473 256.369 451.143 255.777 449.644 255.934C449.582 255.94 449.52 255.933 449.46 255.914C449.401 255.895 449.347 255.863 449.301 255.822C449.255 255.781 449.218 255.731 449.193 255.675C449.168 255.619 449.156 255.559 449.156 255.498V251.741C449.156 251.549 449.232 251.365 449.368 251.229C449.504 251.094 449.688 251.017 449.879 251.017C470.421 251.012 491.004 251.006 511.627 251Z" fill="#4800FF"/>
<path d="M511.662 416.194C511.772 416.194 511.848 416.444 511.888 416.944C514.277 446.832 528.031 475.178 552.533 492.803C565.294 501.984 579.618 507.877 595.505 510.48C600.084 511.229 604.457 511.758 608.623 512.066C608.674 512.064 608.724 512.082 608.761 512.116C608.799 512.151 608.822 512.198 608.824 512.249C608.826 512.3 608.808 512.35 608.774 512.387C608.74 512.425 608.692 512.447 608.641 512.45C607.943 512.566 605.791 512.813 602.182 513.191C581.986 515.317 561.807 523.555 546.571 536.568C525.486 554.568 513.71 581.414 511.775 609.132C511.769 609.214 511.729 609.255 511.653 609.255C511.583 609.255 511.546 609.214 511.54 609.132C509.605 581.414 497.829 554.568 476.744 536.568C461.507 523.555 441.329 515.317 421.133 513.191C417.524 512.813 415.371 512.566 414.674 512.45C414.623 512.447 414.575 512.425 414.541 512.387C414.507 512.35 414.489 512.3 414.491 512.249C414.493 512.198 414.516 512.151 414.553 512.116C414.591 512.082 414.641 512.064 414.691 512.066C418.858 511.758 423.231 511.229 427.81 510.48C443.697 507.877 458.021 501.984 470.782 492.803C495.284 475.178 509.038 446.832 511.426 416.944C511.467 416.444 511.546 416.194 511.662 416.194Z" fill="#4800FF"/>
<path d="M390.642 512.415C390.642 514.106 390.625 516.111 390.59 518.429C390.588 518.624 390.657 518.812 390.784 518.96C390.91 519.107 391.086 519.204 391.279 519.231C407.3 521.402 423.878 524.348 439.646 529.996C445.826 532.21 451.326 535.095 456.591 537.867C456.634 537.886 456.67 537.92 456.691 537.962C456.711 538.005 456.717 538.053 456.705 538.099C456.694 538.145 456.666 538.186 456.628 538.213C456.589 538.241 456.542 538.254 456.495 538.25C422.309 538.216 370.444 538.201 300.898 538.207C286.307 538.216 271.82 545.354 266.599 559.519C264.559 565.056 263.475 570.617 263.348 576.202C263.343 576.363 263.276 576.516 263.16 576.628C263.045 576.74 262.89 576.803 262.729 576.803H258.641C258.559 576.803 258.478 576.787 258.402 576.756C258.326 576.725 258.258 576.679 258.2 576.621C258.142 576.564 258.097 576.496 258.066 576.42C258.036 576.345 258.021 576.265 258.022 576.184C257.978 554.053 258.048 540.499 258.048 512.432C258.048 484.357 257.97 470.803 258.013 448.672C258.012 448.591 258.027 448.51 258.058 448.435C258.088 448.36 258.134 448.292 258.191 448.235C258.249 448.177 258.318 448.131 258.393 448.1C258.469 448.069 258.55 448.053 258.632 448.053H262.72C262.881 448.053 263.036 448.115 263.152 448.228C263.267 448.34 263.334 448.493 263.339 448.654C263.467 454.239 264.551 459.8 266.59 465.337C271.811 479.502 286.298 486.64 300.889 486.64C370.435 486.635 422.301 486.611 456.486 486.571C456.535 486.564 456.584 486.575 456.624 486.602C456.665 486.629 456.694 486.67 456.707 486.717C456.72 486.763 456.715 486.813 456.694 486.857C456.672 486.901 456.636 486.935 456.591 486.954C451.326 489.726 445.826 492.611 439.646 494.834C423.878 500.482 407.3 503.428 391.279 505.599C391.085 505.626 390.908 505.724 390.781 505.873C390.654 506.023 390.586 506.213 390.59 506.409C390.625 508.728 390.642 510.73 390.642 512.415Z" fill="#4800FF"/>
<path d="M765.249 512.467C765.24 540.517 765.31 554.071 765.258 576.193C765.258 576.355 765.193 576.51 765.076 576.625C764.96 576.739 764.803 576.803 764.639 576.803H760.551C760.39 576.803 760.235 576.741 760.119 576.628C760.004 576.516 759.937 576.363 759.932 576.202C759.81 570.623 758.729 565.065 756.689 559.527C751.477 545.372 736.999 538.233 722.416 538.216C652.906 538.192 601.066 538.195 566.898 538.224C566.851 538.228 566.804 538.215 566.765 538.187C566.727 538.159 566.699 538.119 566.688 538.073C566.676 538.027 566.682 537.979 566.702 537.936C566.723 537.894 566.759 537.86 566.802 537.841C572.067 535.069 577.567 532.184 583.747 529.979C599.506 524.339 616.076 521.393 632.088 519.231C632.281 519.204 632.456 519.107 632.583 518.96C632.71 518.812 632.779 518.624 632.777 518.429C632.742 516.111 632.724 514.109 632.724 512.424C632.724 510.733 632.745 508.728 632.785 506.409C632.787 506.214 632.717 506.024 632.589 505.876C632.46 505.729 632.282 505.633 632.088 505.607C616.085 503.437 599.515 500.482 583.755 494.825C577.584 492.611 572.084 489.726 566.819 486.954C566.775 486.935 566.738 486.901 566.717 486.857C566.695 486.814 566.691 486.764 566.703 486.717C566.716 486.67 566.746 486.629 566.786 486.602C566.827 486.575 566.876 486.564 566.924 486.571C601.087 486.623 652.923 486.661 722.434 486.684C737.016 486.684 751.495 479.554 756.724 465.399C758.764 459.861 759.848 454.303 759.976 448.724C759.98 448.563 760.047 448.41 760.163 448.298C760.278 448.185 760.433 448.122 760.594 448.123H764.682C764.764 448.123 764.846 448.139 764.921 448.17C764.997 448.201 765.066 448.247 765.123 448.304C765.181 448.362 765.226 448.43 765.257 448.505C765.287 448.58 765.302 448.661 765.301 448.741C765.336 470.855 765.258 484.409 765.249 512.467Z" fill="#4800FF"/>
<path d="M511.636 633.068C513.681 633.068 515.663 633.042 517.58 632.989C517.739 632.986 517.892 632.928 518.012 632.824C518.133 632.721 518.215 632.579 518.243 632.423C519.167 627.205 520.21 621.33 521.372 614.798C523.563 602.485 527 590.506 531.683 578.86C533.241 574.984 535.071 571.251 537.175 567.66C537.197 567.621 537.231 567.59 537.273 567.573C537.314 567.556 537.36 567.553 537.403 567.565C537.446 567.578 537.484 567.604 537.511 567.64C537.537 567.676 537.551 567.72 537.55 567.764C537.474 583.001 537.497 638.118 537.619 733.115C537.631 738.833 539.04 744.548 541.847 750.26C546.862 760.459 555.099 766.348 566.558 767.929C569.202 768.295 571.657 768.565 573.923 768.739C574.09 768.754 574.246 768.831 574.359 768.954C574.472 769.076 574.534 769.236 574.533 769.402L574.49 773.394C574.489 773.459 574.474 773.523 574.448 773.583C574.421 773.642 574.382 773.696 574.334 773.74C574.286 773.784 574.229 773.818 574.168 773.839C574.106 773.861 574.041 773.869 573.976 773.864C573.063 773.795 552.292 773.763 511.662 773.769C471.026 773.78 450.252 773.821 449.339 773.891C449.274 773.895 449.209 773.887 449.147 773.865C449.085 773.844 449.029 773.81 448.981 773.766C448.932 773.722 448.894 773.669 448.867 773.609C448.84 773.55 448.826 773.485 448.825 773.42L448.781 769.428C448.781 769.262 448.843 769.102 448.956 768.98C449.069 768.857 449.224 768.781 449.392 768.765C451.658 768.585 454.113 768.312 456.757 767.946C468.216 766.365 476.45 760.473 481.459 750.269C484.266 744.557 485.672 738.842 485.678 733.124C485.765 638.126 485.768 583.009 485.687 567.773C485.685 567.728 485.699 567.684 485.726 567.648C485.752 567.612 485.79 567.586 485.833 567.574C485.876 567.562 485.922 567.565 485.964 567.582C486.005 567.599 486.039 567.629 486.062 567.668C488.171 571.26 490.004 574.993 491.562 578.869C496.251 590.514 499.691 602.491 501.882 614.798C503.05 621.33 504.096 627.205 505.02 632.423C505.046 632.581 505.127 632.725 505.248 632.83C505.368 632.935 505.522 632.994 505.682 632.998C507.606 633.045 509.59 633.068 511.636 633.068Z" fill="#4800FF"/>
</svg>
